<svg 
 xmlns="http://www.w3.org/2000/svg"
 xmlns:xlink="http://www.w3.org/1999/xlink"
 width="1440px" height="324px">
<path fill-rule="evenodd"  fill="#a34e12"
 d="M0.236,0.458 L0.000,171.894 C0.000,171.894 15.406,238.652 60.915,233.517 C106.424,228.382 164.505,117.177 216.744,124.437 C268.982,131.697 309.001,189.548 320.866,241.432 C332.730,293.315 361.595,317.474 388.864,314.388 C411.353,309.253 432.956,323.670 445.529,192.809 C458.101,61.948 461.997,60.866 486.611,54.314 C511.225,47.762 521.141,93.802 532.651,149.936 C543.838,204.495 540.350,254.974 568.105,275.405 C576.309,281.445 583.410,277.319 584.358,277.133 C609.004,264.150 601.941,256.602 628.982,181.643 C643.550,141.259 665.991,124.093 696.980,173.143 C718.968,212.194 721.677,228.402 771.353,231.766 C831.028,235.131 845.548,200.777 854.225,151.018 C862.902,101.259 864.319,51.304 923.640,56.439 C982.961,61.574 988.888,137.895 988.888,137.895 C988.888,137.895 997.836,187.255 1000.138,217.890 C1002.440,248.525 1013.064,286.065 1032.012,285.888 C1050.959,285.711 1074.688,280.753 1084.427,230.640 C1094.166,180.527 1113.291,161.800 1153.842,169.061 C1194.392,176.321 1192.976,193.675 1200.590,213.684 C1208.205,233.694 1215.996,253.173 1238.131,254.058 C1260.266,254.944 1283.286,243.965 1300.462,220.768 C1317.639,197.570 1339.242,185.529 1365.627,205.893 C1392.012,251.756 1439.1000,228.559 1439.1000,228.559 L1439.1000,0.694 L0.236,0.458 Z"/>
</svg>